<?xml version="1.0" standalone="no"?><!DOCTYPE svg PUBLIC "-//W3C//DTD SVG 1.1//EN" "http://www.w3.org/Graphics/SVG/1.1/DTD/svg11.dtd"><svg t="1768733184575" class="icon" viewBox="0 0 1024 1024" version="1.1" xmlns="http://www.w3.org/2000/svg" p-id="13592" xmlns:xlink="http://www.w3.org/1999/xlink" width="200" height="200"><path d="M624.128 119.808H325.12c-20.48 0-37.376 16.896-37.376 37.376v158.72l335.872 196.096 167.936 70.656 167.936-70.656V315.904l-335.36-196.096z" fill="#21A366" p-id="13593"></path><path d="M287.744 315.904h335.872V512H287.744V315.904z" fill="#107C41" p-id="13594"></path><path d="M922.624 119.808h-298.496v196.096h335.872v-158.72c0-20.48-16.896-37.376-37.376-37.376z" fill="#33C481" p-id="13595"></path><path d="M624.128 512H287.744v354.816c0 20.48 16.896 37.376 37.376 37.376h597.504c20.48 0 37.376-16.896 37.376-37.376v-158.72L624.128 512z" fill="#185C37" p-id="13596"></path><path d="M624.128 512h335.872v196.096h-335.872V512z" fill="#107C41" p-id="13597"></path><path d="M530.432 260.096H287.744v531.968h242.688c20.48 0 37.376-16.896 37.376-37.376V297.472c0-20.992-16.384-37.376-37.376-37.376z" opacity=".1" p-id="13598"></path><path d="M502.784 288.256h-215.04v531.968h214.528c20.48 0 37.376-16.896 37.376-37.376V325.12c0.512-20.48-16.384-36.864-36.864-36.864z" opacity=".2" p-id="13599"></path><path d="M502.784 288.256h-215.04v476.16h214.528c20.48 0 37.376-16.896 37.376-37.376V325.632c0.512-20.992-16.384-37.376-36.864-37.376z" opacity=".2" p-id="13600"></path><path d="M474.624 288.256H287.744v476.16h186.88c20.48 0 37.376-16.896 37.376-37.376V325.632c0-20.992-16.896-37.376-37.376-37.376z" opacity=".2" p-id="13601"></path><path d="M101.376 288.256h373.248c20.48 0 37.376 16.896 37.376 37.376v373.248c0 20.48-16.896 37.376-37.376 37.376H101.376c-20.48 0-37.376-16.896-37.376-37.376v-373.76c0-20.48 16.896-36.864 37.376-36.864z" fill="#107C41" p-id="13602"></path><path d="M162.816 651.776l90.624-140.288-82.944-139.264h67.072l45.056 89.088c4.096 8.192 7.168 14.848 8.704 18.944h0.512c3.072-6.656 6.144-13.312 9.216-19.456l48.64-88.576h61.44L325.632 510.976l87.04 141.312H347.648l-52.224-97.792c-2.56-4.096-4.608-8.704-6.144-13.312h-0.512c-1.536 4.608-3.584 8.704-6.144 12.8l-53.76 98.304-66.048-0.512z" fill="#FFFFFF" p-id="13603"></path></svg>