<?xml version="1.0" standalone="no"?><!DOCTYPE svg PUBLIC "-//W3C//DTD SVG 1.1//EN" "http://www.w3.org/Graphics/SVG/1.1/DTD/svg11.dtd"><svg class="icon" width="200px" height="75.82px" viewBox="0 0 2701 1024" version="1.1" xmlns="http://www.w3.org/2000/svg"><path d="M347.74829927 339.80612276c-4.59183692 0-5.7397957-2.29591846-3.44387725-5.73979659l24.10714248-30.99489784c2.29591846-3.44387724 8.03571416-5.7397957 12.62755108-5.73979571h409.82142831c4.59183692 0 5.7397957 3.44387724 3.44387813 6.88775537l-19.51530644 29.84693818c-2.29591846 3.44387724-8.03571416 6.88775537-11.47959141 6.88775537zM174.40646235 445.41836739c-4.59183692 0-5.7397957-2.29591846-3.44387724-5.73979571l24.10714248-30.99489785c2.29591846-3.44387724 8.03571416-5.7397957 12.62755107-5.73979659h523.46938799c4.59183692 0 6.88775537 3.44387724 5.7397957 6.88775538l-9.18367294 27.5510206c-1.14795879 4.59183692-5.7397957 6.88775537-10.33163263 6.88775537z m277.80612276 105.61224462c-4.59183692 0-5.7397957-3.44387724-3.44387724-6.88775449l16.07142831-28.69898028c2.29591846-3.44387724 6.88775537-6.88775537 11.47959141-6.88775448h229.59183692c4.59183692 0 6.88775537 3.44387724 6.88775536 8.03571416l-2.29591845 27.5510206c0 4.59183692-4.59183692 8.03571416-8.03571417 8.03571416z m1191.58163261-231.88775449c-72.32142832 18.36734678-121.68367383 32.14285752-192.85714248 50.51020342-17.21938799 4.59183692-18.36734678 5.7397957-33.29081718-11.47959141-17.21938799-19.51530645-29.84693906-32.14285752-53.95408154-43.62244893-72.32142832-35.58673477-142.34693906-25.25510215-207.78061201 17.21938799-78.0612249 50.5102043-118.2397957 125.12755107-117.09183692 218.11224463 1.14795879 91.83673477 64.28571416 167.60204122 154.97449013 180.22959141 78.0612249 10.33163262 143.49489785-17.21938799 195.15306094-75.76530557 10.33163262-12.62755107 19.51530645-26.40306094 30.99489786-42.47449013H1198.38605464c-24.10714248 0-29.84693906-14.92346953-21.8112249-34.4387751 14.92346953-35.58673477 42.47449013-95.28061201 58.54591845-125.12755107 3.44387724-6.88775537 11.47959141-18.36734678 28.6989794-18.36734766h417.85714336c-2.29591846 30.99489786-2.29591846 61.9897957-6.88775537 92.98469443-12.62755107 82.65306094-43.62244893 158.41836739-94.13265323 225-82.65306094 109.05612276-190.5612249 176.78571416-327.16836738 195.15306094-112.5 14.92346953-216.96428584-6.88775537-308.80101973-75.76530557-84.9489794-64.28571416-133.16326523-149.23469356-145.79081718-254.84693906-14.92346953-125.12755107 21.8112249-237.62755107 97.57653135-336.35204121C977.97789155 173.35204121 1085.88605464 105.62244893 1217.90136021 81.51530645c107.90816309-19.51530645 211.22449013-6.88775537 304.20918368 56.24999999 60.84183691 40.17857168 104.46428584 95.28061201 133.16326524 161.86224463 6.88775537 10.33163262 2.29591846 16.07142832-11.47959141 19.51530645z" fill="#00ACD7" /><path d="M2023.76870787 953.96428584c-104.46428584-2.29591846-199.74489785-32.14285752-280.10204122-101.0204086-67.72959141-58.54591846-110.20408154-133.16326523-123.97959141-221.55612187-20.66326523-129.71938799 14.92346953-244.51530645 92.98469356-346.68367383 83.8010206-110.20408154 184.82142832-167.60204122 321.42857168-191.70918369 117.09183691-20.66326523 227.29591846-9.18367383 327.16836739 58.54591846 90.6887751 61.9897957 146.9387751 145.79081631 161.86224462 255.99489785 19.51530645 154.97449013-25.25510215 281.25-132.01530644 389.15816308-75.76530645 76.91326523-168.75 125.12755107-275.5102043 146.93877598-30.99489786 5.7397957-61.9897957 6.88775537-91.83673388 10.33163262z m273.21428495-463.77551074c-1.14795879-14.92346953-1.14795879-26.40306094-3.44387724-37.88265234-20.66326523-113.64795878-125.12755107-177.93367383-234.18367383-152.67857169-106.7602043 24.10714248-175.63775537 91.83673477-200.89285664 199.74489786-20.66326523 89.54081631 22.95918369 180.22959141 105.61224463 216.96428584 63.13775537 27.5510206 126.27550987 24.10714248 187.11734678-6.88775537 90.6887751-47.06632617 140.0510206-120.53571416 145.7908163-219.2602043z" fill="#00ACD7" /></svg>