<?xml version="1.0" standalone="no"?><!DOCTYPE svg PUBLIC "-//W3C//DTD SVG 1.1//EN" "http://www.w3.org/Graphics/SVG/1.1/DTD/svg11.dtd"><svg class="icon" width="200px" height="200.00px" viewBox="0 0 1024 1024" version="1.1" xmlns="http://www.w3.org/2000/svg"><path d="M927.808 86.336c7.04 0 12.8 5.76 12.8 12.8v831.616a12.8 12.8 0 0 1-12.8 12.8H96.192a12.8 12.8 0 0 1-12.8-12.8V99.136c0-7.04 5.76-12.8 12.8-12.8h831.616zM1024 12.8a12.8 12.8 0 0 0-12.8-12.864H12.8a12.8 12.8 0 0 0-12.8 12.8v998.4c0 7.04 5.76 12.8 12.8 12.8h992.64a12.8 12.8 0 0 0 12.8-12.736l5.696-998.4z" fill="#F37726" /><path d="M817.728 794.368a12.8 12.8 0 0 1-20.672 10.048L525.632 591.232a12.8 12.8 0 0 0-15.68-0.128L226.752 805.12a12.8 12.8 0 0 1-20.48-10.24V221.248c0-7.04 5.76-12.8 12.8-12.8h585.856c7.04 0 12.8 5.76 12.8 12.8v573.12z" fill="#F37726" /></svg>