<?xml version="1.0" standalone="no"?><!DOCTYPE svg PUBLIC "-//W3C//DTD SVG 1.1//EN" "http://www.w3.org/Graphics/SVG/1.1/DTD/svg11.dtd"><svg class="icon" width="200px" height="200.00px" viewBox="0 0 1024 1024" version="1.1" xmlns="http://www.w3.org/2000/svg"><path d="M653.88544 0a92.16 92.16 0 0 1 65.09568 26.9312l187.61728 187.21792a92.16 92.16 0 0 1 27.05408 65.2288v120.6272A80.10752 80.10752 0 0 1 1013.76 480.09216v319.7952a80.10752 80.10752 0 0 1-77.55776 80.06656l-2.54976 0.03072v48.00512c0 53.02272-43.02848 96-96.12288 96H196.7104c-53.0944 0-96.12288-42.97728-96.12288-96v-48.00512A80.10752 80.10752 0 0 1 20.48 799.8976v-319.7952a80.10752 80.10752 0 0 1 77.55776-80.06656l2.54976-0.04096V96C100.58752 42.97728 143.616 0 196.7104 0h457.17504zM837.5296 879.99488H196.7104v17.28512a30.72 30.72 0 0 0 30.72 30.72h579.3792a30.72 30.72 0 0 0 30.72-30.72v-17.28512zM558.77632 555.78624c-15.90272 0-30.03392 3.11296-42.41408 9.33888-12.36992 6.22592-23.1424 15.63648-32.28672 28.23168-5.69344 7.80288-10.10688 16.9984-13.2096 27.56608a116.13184 116.13184 0 0 0-4.67968 32.96256c0 21.74976 6.2464 38.7584 18.7392 51.01568 12.4928 12.26752 29.87008 18.40128 52.14208 18.40128 14.91968 0 28.55936-3.06176 40.88832-9.17504 12.3392-6.11328 22.85568-14.98112 31.55968-26.60352 6.144-8.32512 10.98752-18.05312 14.51008-29.19424 3.5328-11.14112 5.29408-22.44608 5.29408-33.91488 0-21.52448-6.22592-38.3488-18.67776-50.46272-12.45184-12.11392-29.73696-18.16576-51.8656-18.16576z m-237.71136 3.70688h-42.86464l-21.25824 100.9152c-1.80224 8.5504-4.9152 14.9504-9.33888 19.17952-4.42368 4.23936-10.12736 6.35904-17.1008 6.35904-2.32448 0-4.9664-0.3072-7.92576-0.90112a82.83136 82.83136 0 0 1-10.07616-2.80576l-9.00096 34.8672c4.28032 2.02752 8.94976 3.5328 14.00832 4.5056a89.856 89.856 0 0 0 16.93696 1.46432c17.6128 0 31.47776-4.05504 41.5744-12.15488 10.07616-8.0896 16.95744-20.736 20.6336-37.90848l24.41216-113.52064z m81.5616-3.4816c-20.10112 0-36.33152 4.8128-48.71168 14.45888-12.36992 9.6256-18.56512 22.17984-18.56512 37.632 0 8.76544 2.21184 16.27136 6.64576 22.49728 4.42368 6.22592 11.1616 11.24352 20.24448 15.07328 2.32448 0.9728 5.59104 2.28352 9.78944 3.9424 16.72192 6.66624 25.088 13.86496 25.088 21.59616 0 6.144-3.15392 11.02848-9.45152 14.62272-6.2976 3.60448-14.92992 5.39648-25.87648 5.39648-6.00064 0-12.1344-0.8192-18.39104-2.46784a103.39328 103.39328 0 0 1-19.4048-7.424l-9.22624 32.96256c8.25344 2.9184 16.81408 5.12 25.7024 6.57408a171.3152 171.3152 0 0 0 27.8528 2.2016c22.86592 0 40.98048-5.20192 54.33344-15.58528 13.34272-10.38336 20.0192-24.32 20.0192-41.78944 0-9.5232-2.39616-17.36704-7.19872-23.52128-4.80256-6.144-13.83424-12.4416-27.11552-18.8928a196.47488 196.47488 0 0 0-10.79296-4.73088c-11.39712-4.72064-17.1008-9.97376-17.1008-15.74912 0-5.3248 2.52928-9.39008 7.58784-12.20608 5.0688-2.80576 12.35968-4.21888 21.88288-4.21888 6.30784 0 12.45184 0.65536 18.45248 1.96608 6.00064 1.32096 11.9296 3.2768 17.77664 5.90848l9.90208-31.16032c-6.37952-2.32448-14.08-4.096-23.12192-5.28384a231.79264 231.79264 0 0 0-30.3104-1.80224z m319.2832 3.4816h-52.54144l-34.0992 159.86688h39.15776l17.664-83.58912c0.9728-4.64896 1.87392-9.6256 2.70336-14.8992 0.8192-5.29408 1.60768-10.8544 2.3552-16.71168h1.6896c0.45056 4.64896 1.1264 9.09312 2.02752 13.33248 0.90112 4.23936 1.98656 8.37632 3.26656 12.43136l27.21792 89.43616h52.5312l34.0992-159.86688h-38.93248l-17.1008 80.896a390.01088 390.01088 0 0 0-3.70688 18.8928 153.58976 153.58976 0 0 0-1.80224 14.7456h-1.91488a128.88064 128.88064 0 0 0-2.58048-14.848 262.79936 262.79936 0 0 0-5.18144-18.56512l-24.86272-81.12128z m-165.9392 25.98912c9.29792 0 16.4864 3.19488 21.59616 9.56416 5.09952 6.37952 7.64928 15.4112 7.64928 27.11552 0 8.17152-1.16736 16.57856-3.4816 25.1904-2.33472 8.63232-5.36576 15.91296-9.1136 21.83168-5.09952 7.7312-10.43456 13.44512-15.9744 17.16224a31.92832 31.92832 0 0 1-18.1248 5.56032c-8.99072 0-16.0768-3.23584-21.25824-9.728-5.1712-6.48192-7.76192-15.36-7.76192-26.60352 0-8.25344 1.16736-16.71168 3.4816-25.37472 2.33472-8.66304 5.36576-16.0256 9.1136-22.09792 4.57728-7.43424 9.73824-13.056 15.47264-16.87552a32.5632 32.5632 0 0 1 18.40128-5.7344z m52.36736-497.16224H227.4304a30.72 30.72 0 0 0-30.72 30.72v280.95488h640.8192v-81.5616H700.52864c-50.8928-0.01024-92.14976-41.2672-92.16-92.16l-0.03072-137.95328z m96.12288 59.84256v58.91072a15.36 15.36 0 0 0 15.36 15.36h59.0848l-74.4448-74.27072z" fill="#FF6B08" /></svg>