<?xml version="1.0" standalone="no"?><!DOCTYPE svg PUBLIC "-//W3C//DTD SVG 1.1//EN" "http://www.w3.org/Graphics/SVG/1.1/DTD/svg11.dtd"><svg t="1768733268345" class="icon" viewBox="0 0 1024 1024" version="1.1" xmlns="http://www.w3.org/2000/svg" p-id="17579" xmlns:xlink="http://www.w3.org/1999/xlink" width="200" height="200"><path d="M567.808 119.808c-216.064 1.024-391.168 176.128-392.192 392.192l496.64 104.448-104.448-496.64z" fill="#ED6C47" p-id="17580"></path><path d="M567.808 119.808c216.064 0.512 391.168 175.616 392.192 392.192l-196.096 133.12-196.096-133.12V119.808z" fill="#FF8F6B" p-id="17581"></path><path d="M567.808 904.192c216.064-0.512 391.168-175.616 392.192-392.192H175.616c1.024 216.064 176.128 391.168 392.192 392.192z" fill="#D35230" p-id="17582"></path><path d="M530.432 260.096H268.288c-132.608 156.672-121.344 389.12 26.112 531.968h236.032c20.48 0 37.376-16.896 37.376-37.376V297.472c0-20.48-16.896-37.376-37.376-37.376z" opacity=".1" p-id="17583"></path><path d="M502.272 288.256H246.784c-119.808 169.984-84.992 404.48 79.872 531.968h176.128c20.48 0 37.376-16.896 37.376-37.376V325.12c-0.512-20.48-16.896-36.864-37.888-36.864z" opacity=".2" p-id="17584"></path><path d="M502.272 288.256H246.784c-102.4 144.896-93.184 340.992 21.504 476.16h233.984c20.48 0 37.376-16.896 37.376-37.376V325.12c0-20.48-16.384-36.864-37.376-36.864z" opacity=".2" p-id="17585"></path><path d="M474.624 288.256H246.784c-102.4 144.896-93.184 340.992 21.504 476.16h206.336c20.48 0 37.376-16.896 37.376-37.376V325.12c0-20.48-16.896-36.864-37.376-36.864z" opacity=".2" p-id="17586"></path><path d="M101.376 288.256h373.248c20.48 0 37.376 16.896 37.376 37.376v373.248c0 20.48-16.896 37.376-37.376 37.376H101.376c-20.48 0-37.376-16.896-37.376-37.376v-373.76c0-20.48 16.384-37.376 37.376-36.864z" fill="#C43E1C" p-id="17587"></path><path d="M287.744 372.224c27.648-2.048 54.784 6.144 77.312 22.528 18.432 16.384 28.16 40.448 26.624 65.536 0.512 15.872-4.096 31.232-13.312 44.544-9.216 14.336-22.016 26.112-37.888 33.28-17.92 8.192-36.864 12.288-56.32 11.776H230.912v102.912H175.616V372.224h112.128zM230.912 503.296h47.104c14.848 1.024 29.696-3.072 41.984-12.288 9.728-6.144 15.36-17.408 14.336-28.672 0-30.72-17.92-46.592-54.272-46.592h-49.152v87.552z" fill="#F9F7F7" p-id="17588"></path></svg>