<?xml version="1.0" standalone="no"?><!DOCTYPE svg PUBLIC "-//W3C//DTD SVG 1.1//EN" "http://www.w3.org/Graphics/SVG/1.1/DTD/svg11.dtd"><svg class="icon" width="200px" height="200.00px" viewBox="0 0 1024 1024" version="1.1" xmlns="http://www.w3.org/2000/svg"><path d="M648.76544 0c24.40704 0 47.8208 9.68704 65.09568 26.9312l187.61728 187.21792a92.16 92.16 0 0 1 27.05408 65.2288v120.6272c44.2368 0 80.09728 35.85536 80.10752 80.08704v319.7952c0 43.24864-34.3296 78.6944-77.55776 80.06656l-2.54976 0.03072v48.00512c0 53.02272-43.02848 96-96.12288 96H191.5904c-53.0944 0-96.12288-42.97728-96.12288-96v-48.00512c-44.2368 0-80.09728-35.85536-80.10752-80.08704V480.1024c0-43.24864 34.3296-78.6944 77.55776-80.06656l2.54976-0.04096V96C95.46752 42.97728 138.496 0 191.5904 0h457.17504z m183.64416 879.99488H191.5904v17.28512a30.72 30.72 0 0 0 30.72 30.72h579.3792a30.72 30.72 0 0 0 30.72-30.72v-17.28512zM565.78048 542.72c-35.38944 0-71.02464 16.71168-77.16864 50.87232-6.38976 39.81312 24.08448 51.11808 58.73664 55.05024 20.64384 2.4576 30.96576 7.12704 30.96576 18.92352 0 14.99136-16.22016 23.83872-38.33856 23.83872-17.2032 0-37.35552-6.88128-47.9232-23.10144l-24.576 28.75392c12.288 20.15232 38.83008 29.73696 66.10944 29.4912 43.25376-0.24576 83.06688-17.2032 83.06688-63.40608 0-32.68608-27.27936-44.97408-57.26208-47.67744-19.90656-1.72032-33.66912-4.66944-33.66912-17.69472 0-13.76256 16.22016-21.87264 34.4064-21.87264 13.27104 0 28.75392 4.17792 36.61824 13.76256l25.8048-23.10144c-14.99136-18.432-31.45728-23.83872-56.77056-23.83872z m-152.3712 6.144h-81.1008L302.08 720.896h38.33856l8.6016-48.66048h42.76224c50.13504 0 77.90592-33.66912 77.90592-71.76192 0-28.2624-17.69472-51.6096-56.27904-51.6096z m309.90336 0l-67.584 22.85568-5.89824 33.42336 28.99968-8.6016-16.22016 92.89728h-30.72l-5.65248 31.45728h93.88032l5.65248-31.45728h-27.0336l24.576-140.57472z m-316.29312 36.37248c15.9744 0 23.59296 10.07616 23.59296 21.87264 0 15.23712-11.79648 29.98272-32.68608 29.98272h-42.76224l9.09312-51.85536z m196.1984-496.91648H222.3104a30.72 30.72 0 0 0-30.72 30.72v280.95488h640.8192v-81.5616h-137.00096c-50.8928-0.01024-92.14976-41.2672-92.16-92.16l-0.03072-137.95328z" fill="#FF6B08" /></svg>