<?xml version="1.0" standalone="no"?><!DOCTYPE svg PUBLIC "-//W3C//DTD SVG 1.1//EN" "http://www.w3.org/Graphics/SVG/1.1/DTD/svg11.dtd"><svg t="1768733216656" class="icon" viewBox="0 0 1024 1024" version="1.1" xmlns="http://www.w3.org/2000/svg" p-id="14649" xmlns:xlink="http://www.w3.org/1999/xlink" width="200" height="200"><path d="M922.624 119.808H325.12c-20.48 0-37.376 16.896-37.376 37.376v158.72l335.872 97.792 335.872-97.792v-158.72c0.512-20.48-16.384-37.376-36.864-37.376z" fill="#41A5EE" p-id="14650"></path><path d="M960 315.904H288.256V512l335.872 97.792 335.872-97.792V315.904z" fill="#2B7CD3" p-id="14651"></path><path d="M960 512H288.256v196.096l335.872 97.792 335.872-97.792V512z" fill="#185ABD" p-id="14652"></path><path d="M960 708.096H288.256v158.72c0 20.48 16.896 37.376 37.376 37.376h597.504c20.48 0 37.376-16.896 37.376-37.376l-0.512-158.72z" fill="#103F91" p-id="14653"></path><path d="M530.432 260.096H288.256v531.968h242.688c20.48 0 37.376-16.896 37.376-37.376V297.472c-0.512-20.992-16.896-37.376-37.888-37.376z" opacity=".1" p-id="14654"></path><path d="M502.784 288.256H288.256v531.968h214.528c20.48 0 37.376-16.896 37.376-37.376V325.12c0-20.48-16.896-36.864-37.376-36.864z" opacity=".2" p-id="14655"></path><path d="M502.784 288.256H288.256v476.16h214.528c20.48 0 37.376-16.896 37.376-37.376V325.12c0-20.48-16.896-36.864-37.376-36.864z" opacity=".2" p-id="14656"></path><path d="M474.624 288.256H288.256v476.16h186.88c20.48 0 37.376-16.896 37.376-37.376V325.12c-0.512-20.48-17.408-36.864-37.888-36.864z" opacity=".2" p-id="14657"></path><path d="M101.376 288.256h373.248c20.48 0 37.376 16.896 37.376 37.376v373.248c0 20.48-16.896 37.376-37.376 37.376H101.376c-20.48 0-37.376-16.896-37.376-37.376v-373.76c0-20.48 16.896-37.376 37.376-36.864z" fill="#185ABD" p-id="14658"></path><path d="M398.848 651.776H348.16L289.28 458.752l-61.44 193.024h-50.176l-56.32-280.064h50.176l39.424 196.096 58.88-190.464h41.984l55.808 190.464 39.424-196.096h47.616l-55.808 280.064z" fill="#FFFFFF" p-id="14659"></path></svg>